<svg xmlns="http://www.w3.org/2000/svg" xmlns:xlink="http://www.w3.org/1999/xlink" data-v-6805eed4="" version="1.0" preserveAspectRatio="xMidYMid meet" color-interpolation-filters="sRGB" style="margin: auto;" viewBox="66.18 96.21 207.65 56.99">   <g data-v-6805eed4="" fill="#fdb051" class="basesvg" transform="translate(66.7750015258789,96.80500030517578)"><g fill-rule="" class="tp-name" transform="translate(0,0)"><g transform="scale(1)"><g fill="url(#ff40d8a1-047e-4d51-9652-bc969597fa5b)"><g stroke="#000" stroke-width="1.2" stroke-linecap="round" stroke-linejoin="round" data-gra-ignore-stroke="true" data-gra-ignore-fill="true" paint-order="stroke" fill="#00FFFF" transform="translate(7, 7)"><path d="M21.39-33.57L21.39-33.57Q25.87-33.57 28.65-32.43 31.44-31.28 33.05-28.89L33.05-28.89Q34.09-27.27 34.66-25.24 35.24-23.21 35.24-20.56L35.24-20.56Q35.24-18.27 34.82-15.98 34.4-13.69 33.65-11.58 32.89-9.47 31.83-7.63 30.76-5.78 29.46-4.37L29.46-4.37Q27.01-1.72 23.81-0.65 20.61 0.42 15.93 0.42L15.93 0.42Q11.4 0.42 8.64-0.52 5.88-1.46 4.27-3.54L4.27-3.54Q3.12-5 2.47-7.23 1.82-9.47 1.82-12.86L1.82-12.86Q1.82-18.63 3.88-23.19 5.93-27.74 9.73-30.4L9.73-30.4Q12.02-32.01 14.83-32.79 17.64-33.57 21.39-33.57ZM15.51-3.23L15.51-3.23Q16.71-3.23 17.77-4.29 18.84-5.36 19.75-7.16 20.66-8.95 21.42-11.24 22.17-13.53 22.69-15.98 23.21-18.42 23.5-20.85 23.79-23.27 23.79-25.24L23.79-25.24Q23.79-27.95 23.24-28.96 22.69-29.98 21.65-29.98L21.65-29.98Q20.45-29.98 19.36-28.94 18.27-27.9 17.31-26.15 16.34-24.41 15.59-22.15 14.83-19.88 14.29-17.49 13.74-15.09 13.45-12.75 13.17-10.41 13.17-8.43L13.17-8.43Q13.17-5.47 13.82-4.35 14.47-3.23 15.51-3.23ZM66.15-33.05L65.27-29.09 56.89-29.09 50.69 0 39.45 0 45.65-29.09 37.37-29.09 38.31-33.05 66.15-33.05ZM95.04-33.05L94.15-29.09 85.78-29.09 79.58 0 68.34 0 74.53-29.09 66.26-29.09 67.19-33.05 95.04-33.05ZM114.14-33.05L117.73 0 105.55 0 104.82-8.28 95.2-8.28 91.5 0 86.45 0 101.81-33.05 114.14-33.05ZM103.26-26.23L96.91-12.08 104.46-12.08 103.26-26.23ZM125.02 0L123.09-33.05 134.96-33.05 136.73-10.67 147.56-33.05 152.71-33.05 137.3 0 125.02 0ZM167.39-33.05L160.31 0 149.07 0 156.09-33.05 167.39-33.05ZM187.42-33.57L187.42-33.57Q191.9-33.57 194.69-32.43 197.47-31.28 199.08-28.89L199.08-28.89Q200.12-27.27 200.7-25.24 201.27-23.21 201.27-20.56L201.27-20.56Q201.27-18.27 200.85-15.98 200.44-13.69 199.68-11.58 198.93-9.47 197.86-7.63 196.79-5.78 195.49-4.37L195.49-4.37Q193.05-1.72 189.84-0.65 186.64 0.42 181.96 0.42L181.96 0.42Q177.43 0.42 174.67-0.52 171.91-1.46 170.3-3.54L170.3-3.54Q169.16-5 168.51-7.23 167.85-9.47 167.85-12.86L167.85-12.86Q167.85-18.63 169.91-23.19 171.97-27.74 175.77-30.4L175.77-30.4Q178.06-32.01 180.87-32.79 183.68-33.57 187.42-33.57ZM181.54-3.23L181.54-3.23Q182.74-3.23 183.81-4.29 184.87-5.36 185.79-7.16 186.7-8.95 187.45-11.24 188.21-13.53 188.73-15.98 189.25-18.42 189.53-20.85 189.82-23.27 189.82-25.24L189.82-25.24Q189.82-27.95 189.27-28.96 188.73-29.98 187.68-29.98L187.68-29.98Q186.49-29.98 185.39-28.94 184.3-27.9 183.34-26.15 182.38-24.41 181.62-22.15 180.87-19.88 180.32-17.49 179.77-15.09 179.49-12.75 179.2-10.41 179.2-8.43L179.2-8.43Q179.2-5.47 179.85-4.35 180.5-3.23 181.54-3.23Z" transform="translate(-1.8199999332427979, 33.56999969482422)"/></g><g stroke="#000" stroke-width="1.2" stroke-linecap="round" stroke-linejoin="round" data-gra-ignore-stroke="true" data-gra-ignore-fill="true" paint-order="stroke" fill="#ffae00" transform="translate(3.5, 3.5)"><path d="M21.39-33.57L21.39-33.57Q25.87-33.57 28.65-32.43 31.44-31.28 33.05-28.89L33.05-28.89Q34.09-27.27 34.66-25.24 35.24-23.21 35.24-20.56L35.24-20.56Q35.24-18.27 34.82-15.98 34.4-13.69 33.65-11.58 32.89-9.47 31.83-7.63 30.76-5.78 29.46-4.37L29.46-4.37Q27.01-1.72 23.81-0.65 20.61 0.42 15.93 0.42L15.93 0.42Q11.4 0.42 8.64-0.52 5.88-1.46 4.27-3.54L4.27-3.54Q3.12-5 2.47-7.23 1.82-9.47 1.82-12.86L1.82-12.86Q1.82-18.63 3.88-23.19 5.93-27.74 9.73-30.4L9.73-30.4Q12.02-32.01 14.83-32.79 17.64-33.57 21.39-33.57ZM15.51-3.23L15.51-3.23Q16.71-3.23 17.77-4.29 18.84-5.36 19.75-7.16 20.66-8.95 21.42-11.24 22.17-13.53 22.69-15.98 23.21-18.42 23.5-20.85 23.79-23.27 23.79-25.24L23.79-25.24Q23.79-27.95 23.24-28.96 22.69-29.98 21.65-29.98L21.65-29.98Q20.45-29.98 19.36-28.94 18.27-27.9 17.31-26.15 16.34-24.41 15.59-22.15 14.83-19.88 14.29-17.49 13.74-15.09 13.45-12.75 13.17-10.41 13.17-8.43L13.17-8.43Q13.17-5.47 13.82-4.35 14.47-3.23 15.51-3.23ZM66.15-33.05L65.27-29.09 56.89-29.09 50.69 0 39.45 0 45.65-29.09 37.37-29.09 38.31-33.05 66.15-33.05ZM95.04-33.05L94.15-29.09 85.78-29.09 79.58 0 68.34 0 74.53-29.09 66.26-29.09 67.19-33.05 95.04-33.05ZM114.14-33.05L117.73 0 105.55 0 104.82-8.28 95.2-8.28 91.5 0 86.45 0 101.81-33.05 114.14-33.05ZM103.26-26.23L96.91-12.08 104.46-12.08 103.26-26.23ZM125.02 0L123.09-33.05 134.96-33.05 136.73-10.67 147.56-33.05 152.71-33.05 137.3 0 125.02 0ZM167.39-33.05L160.31 0 149.07 0 156.09-33.05 167.39-33.05ZM187.42-33.57L187.42-33.57Q191.9-33.57 194.69-32.43 197.47-31.28 199.08-28.89L199.08-28.89Q200.12-27.27 200.7-25.24 201.27-23.21 201.27-20.56L201.27-20.56Q201.27-18.27 200.85-15.98 200.44-13.69 199.68-11.58 198.93-9.47 197.86-7.63 196.79-5.78 195.49-4.37L195.49-4.37Q193.05-1.72 189.84-0.65 186.64 0.42 181.96 0.42L181.96 0.42Q177.43 0.42 174.67-0.52 171.91-1.46 170.3-3.54L170.3-3.54Q169.16-5 168.51-7.23 167.85-9.47 167.85-12.86L167.85-12.86Q167.85-18.63 169.91-23.19 171.97-27.74 175.77-30.4L175.77-30.4Q178.06-32.01 180.87-32.79 183.68-33.57 187.42-33.57ZM181.54-3.23L181.54-3.23Q182.74-3.23 183.81-4.29 184.87-5.36 185.79-7.16 186.7-8.95 187.45-11.24 188.21-13.53 188.73-15.98 189.25-18.42 189.53-20.85 189.82-23.27 189.82-25.24L189.82-25.24Q189.82-27.95 189.27-28.96 188.73-29.98 187.68-29.98L187.68-29.98Q186.49-29.98 185.39-28.94 184.3-27.9 183.34-26.15 182.38-24.41 181.62-22.15 180.87-19.88 180.32-17.49 179.77-15.09 179.49-12.75 179.2-10.41 179.2-8.43L179.2-8.43Q179.2-5.47 179.85-4.35 180.5-3.23 181.54-3.23Z" transform="translate(-1.8199999332427979, 33.56999969482422)"/></g><g stroke="#000" stroke-width="1.2" stroke-linecap="round" stroke-linejoin="round" data-gra-ignore-stroke="true" paint-order="stroke" transform="translate(0, 0)"><path d="M21.39-33.57L21.39-33.57Q25.87-33.57 28.65-32.43 31.44-31.28 33.05-28.89L33.05-28.89Q34.09-27.27 34.66-25.24 35.24-23.21 35.24-20.56L35.24-20.56Q35.24-18.27 34.82-15.98 34.4-13.69 33.65-11.58 32.89-9.47 31.83-7.63 30.76-5.78 29.46-4.37L29.46-4.37Q27.01-1.72 23.81-0.65 20.61 0.42 15.93 0.42L15.93 0.42Q11.4 0.42 8.64-0.52 5.88-1.46 4.27-3.54L4.27-3.54Q3.12-5 2.47-7.23 1.82-9.47 1.82-12.86L1.82-12.86Q1.82-18.63 3.88-23.19 5.93-27.74 9.73-30.4L9.73-30.4Q12.02-32.01 14.83-32.79 17.64-33.57 21.39-33.57ZM15.51-3.23L15.51-3.23Q16.71-3.23 17.77-4.29 18.84-5.36 19.75-7.16 20.66-8.95 21.42-11.24 22.17-13.53 22.69-15.98 23.21-18.42 23.5-20.85 23.79-23.27 23.79-25.24L23.79-25.24Q23.79-27.95 23.24-28.96 22.69-29.98 21.65-29.98L21.65-29.98Q20.45-29.98 19.36-28.94 18.27-27.9 17.31-26.15 16.34-24.41 15.59-22.15 14.83-19.88 14.29-17.49 13.74-15.09 13.45-12.75 13.17-10.41 13.17-8.43L13.17-8.43Q13.17-5.47 13.82-4.35 14.47-3.23 15.51-3.23ZM66.15-33.05L65.27-29.09 56.89-29.09 50.69 0 39.45 0 45.65-29.09 37.37-29.09 38.31-33.05 66.15-33.05ZM95.04-33.05L94.15-29.09 85.78-29.09 79.58 0 68.34 0 74.53-29.09 66.26-29.09 67.19-33.05 95.04-33.05ZM114.14-33.05L117.73 0 105.55 0 104.82-8.28 95.2-8.28 91.5 0 86.45 0 101.81-33.05 114.14-33.05ZM103.26-26.23L96.91-12.08 104.46-12.08 103.26-26.23ZM125.02 0L123.09-33.05 134.96-33.05 136.73-10.67 147.56-33.05 152.71-33.05 137.3 0 125.02 0ZM167.39-33.05L160.31 0 149.07 0 156.09-33.05 167.39-33.05ZM187.42-33.57L187.42-33.57Q191.9-33.57 194.69-32.43 197.47-31.28 199.08-28.89L199.08-28.89Q200.12-27.27 200.7-25.24 201.27-23.21 201.27-20.56L201.27-20.56Q201.27-18.27 200.85-15.98 200.44-13.69 199.68-11.58 198.93-9.47 197.86-7.63 196.79-5.78 195.49-4.37L195.49-4.37Q193.05-1.72 189.84-0.65 186.64 0.42 181.96 0.42L181.96 0.42Q177.43 0.42 174.67-0.52 171.91-1.46 170.3-3.54L170.3-3.54Q169.16-5 168.51-7.23 167.85-9.47 167.85-12.86L167.85-12.86Q167.85-18.63 169.91-23.19 171.97-27.74 175.77-30.4L175.77-30.4Q178.06-32.01 180.87-32.79 183.68-33.57 187.42-33.57ZM181.54-3.23L181.54-3.23Q182.74-3.23 183.81-4.29 184.87-5.36 185.79-7.16 186.7-8.95 187.45-11.24 188.21-13.53 188.73-15.98 189.25-18.42 189.53-20.85 189.82-23.27 189.82-25.24L189.82-25.24Q189.82-27.95 189.27-28.96 188.73-29.98 187.68-29.98L187.68-29.98Q186.49-29.98 185.39-28.94 184.3-27.9 183.34-26.15 182.38-24.41 181.62-22.15 180.87-19.88 180.32-17.49 179.77-15.09 179.49-12.75 179.2-10.41 179.2-8.43L179.2-8.43Q179.2-5.47 179.85-4.35 180.5-3.23 181.54-3.23Z" transform="translate(-1.8199999332427979, 33.56999969482422)"/></g></g></g></g> <g data-gra="path-slogan" fill-rule="evenodd" class="tp-slogan" fill="url(#760503e5-6580-4c3d-9f81-72ee3ed88248)" transform="translate(5,46.98999786376953)"><rect fill="none" x="0" height="0" y="4.199999809265137" width="70.4749984741211"/> <rect fill="none" height="0" y="4.199999809265137" width="70.4749984741211" x="125.9749984741211"/> <g transform="translate(73.4749984741211,0)"><g transform="scale(1)"><path d="M 23.8 9.4 L 23.6 1.5 L 28.2 1.4 L 28.2 2.2 L 24.6 2.3 L 24.7 4.8 L 27.7 4.7 L 27.7 5.6 L 24.7 5.6 L 24.8 8.5 L 28.4 8.4 L 28.5 9.3 L 23.8 9.4 Z M 35.4 8.4 L 31.4 1.1 L 32.5 0.9 L 34.5 4.9 Q 34.8 5.5 35.1 6.1 Q 35.4 6.7 35.7 7.3 L 35.8 7.3 A 48.7 48.7 0 0 0 35.9 5.9 A 181.6 181.6 0 0 1 36.1 4.6 L 36.5 0.2 L 37.5 0 L 36.5 8.2 L 35.4 8.4 Z M 12.5 8.2 L 13.7 0.4 L 15.6 0.7 A 3.6 3.6 0 0 1 18.2 2.1 Q 19 3.2 18.7 5.1 Q 18.5 6 18.2 6.7 Q 17.8 7.4 17.3 7.8 Q 16.8 8.3 16 8.4 Q 15.3 8.6 14.4 8.5 L 12.5 8.2 Z M 13.6 7.5 L 14.5 7.6 A 2.5 2.5 0 0 0 16.6 7.1 A 3.5 3.5 0 0 0 17.7 4.9 Q 17.9 3.5 17.3 2.6 A 2.6 2.6 0 0 0 15.4 1.5 L 14.5 1.3 L 13.6 7.5 Z M 0 1.3 L 0.3 0.6 L 2.8 1.7 L 2.5 2.4 L 0 1.3 Z M 47 2.4 L 46.7 1.7 L 49.2 0.6 L 49.5 1.3 L 47 2.4 Z M 6.2 5.3 A 0.8 0.8 0 0 0 5.9 5.7 Q 5.8 6 5.9 6.3 Q 6.1 6.6 6.3 6.7 A 0.7 0.7 0 0 0 6.9 6.6 A 0.7 0.7 0 0 0 7.2 6.2 Q 7.3 5.8 7.2 5.6 A 0.7 0.7 0 0 0 6.8 5.2 A 0.7 0.7 0 0 0 6.2 5.3 Z"/></g></g></g></g><defs v-gra="od"><linearGradient x1="0" y1="1" x2="0" y2="0" id="760503e5-6580-4c3d-9f81-72ee3ed88248"><stop offset="0%" stop-color="#fdb051"/><stop offset="50%" stop-color="#f2203e"/><stop offset="100%" stop-color="#5342d6"/></linearGradient><filter id="42443b3f1de60f6b6fd3b6a9844b4764" filterUnits="objectBoundingBox"><feColorMatrix type="matrix" values="0 0 0 0 0.99609375  0 0 0 0 0.99609375  0 0 0 0 0.99609375  0 0 0 1 0"/></filter><linearGradient x1="0" y1="1" x2="0" y2="0" id="ff40d8a1-047e-4d51-9652-bc969597fa5b"><stop offset="0%" stop-color="#fdb051"/><stop offset="50%" stop-color="#f2203e"/><stop offset="100%" stop-color="#5342d6"/></linearGradient><filter id="42443b3f1de60f6b6fd3b6a9844b4764" filterUnits="objectBoundingBox"><feColorMatrix type="matrix" values="0 0 0 0 0.99609375  0 0 0 0 0.99609375  0 0 0 0 0.99609375  0 0 0 1 0"/></filter><linearGradient x1="0" y1="1" x2="0" y2="0" id="0f57cebb-dcc5-4c1c-8bd4-d671e88dc10d"><stop offset="0%" stop-color="#fdb051"/><stop offset="50%" stop-color="#f2203e"/><stop offset="100%" stop-color="#5342d6"/></linearGradient><filter id="42443b3f1de60f6b6fd3b6a9844b4764" filterUnits="objectBoundingBox"><feColorMatrix type="matrix" values="0 0 0 0 0.99609375  0 0 0 0 0.99609375  0 0 0 0 0.99609375  0 0 0 1 0"/></filter></defs></svg>