<?xml version="1.0" encoding="utf-8"?>
<!-- Generator: Adobe Illustrator 27.5.0, SVG Export Plug-In . SVG Version: 6.00 Build 0)  -->
<svg version="1.1" id="Layer_1" xmlns="http://www.w3.org/2000/svg" xmlns:xlink="http://www.w3.org/1999/xlink" x="0px" y="0px"
	 viewBox="0 0 41.6 42.2" style="enable-background:new 0 0 41.6 42.2;" xml:space="preserve">
<style type="text/css">
	.st0{fill:#00FFFF;stroke:#000000;stroke-width:1.2;stroke-linecap:round;stroke-linejoin:round;}
	.st1{fill:#ffae00;stroke:#000000;stroke-width:1.2;stroke-linecap:round;stroke-linejoin:round;}
	.st2{fill:#79B652;stroke:#000000;stroke-width:1.2;stroke-linecap:round;stroke-linejoin:round;}
</style>
<g>
	<g>
		<path class="st0" d="M27.2,7.6L27.2,7.6c3,0,5.4,0.4,7.3,1.1c1.9,0.8,3.3,1.9,4.4,3.5l0,0c0.7,1.1,1.2,2.3,1.6,3.7
			c0.4,1.4,0.6,2.9,0.6,4.7l0,0c0,1.5-0.1,3.1-0.4,4.6c-0.3,1.5-0.7,3-1.2,4.4c-0.5,1.4-1.1,2.7-1.8,4c-0.7,1.2-1.5,2.3-2.4,3.3l0,0
			c-1.6,1.8-3.5,3-5.6,3.7c-2.1,0.7-4.8,1.1-7.9,1.1l0,0c-3,0-5.5-0.3-7.3-0.9c-1.8-0.6-3.3-1.6-4.4-3l0,0c-0.8-1-1.4-2.2-1.8-3.7
			c-0.4-1.5-0.7-3.4-0.7-5.6l0,0c0-3.8,0.7-7.3,2.1-10.3c1.4-3,3.3-5.4,5.8-7.2l0,0c1.5-1.1,3.2-1.9,5.1-2.4
			C22.5,7.9,24.7,7.6,27.2,7.6z M21.3,37.9L21.3,37.9c0.8,0,1.6-0.4,2.3-1.1c0.7-0.7,1.4-1.7,2-2.9c0.6-1.2,1.2-2.6,1.7-4.1
			c0.5-1.5,0.9-3.1,1.3-4.7c0.3-1.6,0.6-3.2,0.8-4.9c0.2-1.6,0.3-3.1,0.3-4.4l0,0c0-1.8-0.2-3-0.6-3.7c-0.4-0.7-0.9-1-1.6-1l0,0
			c-0.8,0-1.6,0.3-2.3,1s-1.4,1.6-2.1,2.8c-0.6,1.2-1.2,2.5-1.7,4c-0.5,1.5-0.9,3.1-1.3,4.7c-0.4,1.6-0.6,3.2-0.8,4.7
			c-0.2,1.6-0.3,3-0.3,4.3l0,0c0,2,0.2,3.3,0.7,4.1C20,37.6,20.6,37.9,21.3,37.9z"/>
		<path class="st1" d="M23.7,4.1L23.7,4.1c3,0,5.4,0.4,7.3,1.1c1.9,0.8,3.3,1.9,4.4,3.5l0,0c0.7,1.1,1.2,2.3,1.6,3.7
			c0.4,1.4,0.6,2.9,0.6,4.7l0,0c0,1.5-0.1,3.1-0.4,4.6c-0.3,1.5-0.7,3-1.2,4.4c-0.5,1.4-1.1,2.7-1.8,3.9c-0.7,1.2-1.5,2.3-2.4,3.3
			l0,0c-1.6,1.8-3.5,3-5.7,3.7c-2.1,0.7-4.8,1.1-7.9,1.1l0,0c-3,0-5.5-0.3-7.3-0.9c-1.8-0.6-3.3-1.6-4.4-3l0,0
			c-0.8-1-1.4-2.2-1.8-3.7c-0.4-1.5-0.7-3.4-0.7-5.6l0,0c0-3.8,0.7-7.3,2.1-10.3c1.4-3,3.3-5.4,5.8-7.2l0,0c1.5-1.1,3.2-1.9,5.1-2.4
			C19,4.4,21.2,4.1,23.7,4.1z M17.8,34.4L17.8,34.4c0.8,0,1.6-0.4,2.3-1.1c0.7-0.7,1.4-1.7,2-2.9c0.6-1.2,1.2-2.6,1.7-4.1
			c0.5-1.5,0.9-3.1,1.3-4.7c0.3-1.6,0.6-3.3,0.8-4.9c0.2-1.6,0.3-3.1,0.3-4.4l0,0c0-1.8-0.2-3-0.6-3.7c-0.4-0.7-0.9-1-1.6-1l0,0
			c-0.8,0-1.6,0.3-2.3,1c-0.7,0.7-1.4,1.6-2.1,2.8c-0.6,1.2-1.2,2.5-1.7,4c-0.5,1.5-0.9,3.1-1.3,4.7c-0.4,1.6-0.6,3.2-0.8,4.7
			c-0.2,1.6-0.3,3-0.3,4.3l0,0c0,2,0.2,3.3,0.7,4.1C16.5,34.1,17.1,34.4,17.8,34.4z"/>
		<path class="st2" d="M20.2,0.6L20.2,0.6c3,0,5.4,0.4,7.3,1.1c1.9,0.8,3.3,1.9,4.4,3.5l0,0c0.7,1.1,1.2,2.3,1.6,3.7
			c0.4,1.4,0.6,2.9,0.6,4.7l0,0c0,1.5-0.1,3.1-0.4,4.6c-0.3,1.5-0.7,3-1.2,4.4c-0.5,1.4-1.1,2.7-1.8,3.9c-0.7,1.2-1.5,2.3-2.4,3.3
			l0,0c-1.6,1.8-3.5,3-5.7,3.7c-2.1,0.7-4.8,1.1-7.9,1.1l0,0c-3,0-5.5-0.3-7.3-0.9c-1.8-0.6-3.3-1.6-4.4-3l0,0
			c-0.8-1-1.4-2.2-1.8-3.7c-0.4-1.5-0.7-3.4-0.7-5.6l0,0c0-3.8,0.7-7.3,2.1-10.3C4,7.9,6,5.5,8.5,3.8l0,0c1.5-1.1,3.2-1.9,5.1-2.4
			C15.5,0.9,17.7,0.6,20.2,0.6L20.2,0.6z M14.3,30.9L14.3,30.9c0.8,0,1.6-0.4,2.3-1.1c0.7-0.7,1.4-1.7,2-2.9
			c0.6-1.2,1.2-2.6,1.7-4.1c0.5-1.5,0.9-3.1,1.3-4.7c0.3-1.6,0.6-3.3,0.8-4.9c0.2-1.6,0.3-3.1,0.3-4.4l0,0c0-1.8-0.2-3-0.6-3.7
			c-0.4-0.7-0.9-1-1.6-1l0,0c-0.8,0-1.6,0.3-2.3,1c-0.7,0.7-1.4,1.6-2.1,2.8c-0.6,1.2-1.2,2.5-1.7,4c-0.5,1.5-0.9,3.1-1.3,4.7
			c-0.4,1.6-0.6,3.2-0.8,4.7c-0.2,1.6-0.3,3-0.3,4.3l0,0c0,2,0.2,3.3,0.7,4.1S13.6,30.9,14.3,30.9z"/>
	</g>
</g>
</svg>
