<svg xmlns="http://www.w3.org/2000/svg" version="1.0" color-interpolation-filters="sRGB" style="margin:auto" viewBox="66.18 96.21 207.65 56.99"><g fill="#ff51f9" class="basesvg"><g fill="url(#a)" stroke="#000" stroke-width="1.2" stroke-linecap="round" stroke-linejoin="round" paint-order="stroke" transform="translate(66.775 96.805)" class="tp-name"><path d="M26.57 7h0q4.48 0 7.26 1.14 2.79 1.15 4.4 3.54h0q1.04 1.62 1.61 3.65.58 2.03.58 4.68h0q0 2.29-.42 4.58t-1.17 4.4q-.76 2.11-1.82 3.95-1.07 1.85-2.37 3.26h0q-2.45 2.65-5.65 3.72-3.2 1.07-7.88 1.07h0q-4.53 0-7.29-.94t-4.37-3.02h0q-1.15-1.46-1.8-3.69Q7 31.1 7 27.71h0q0-5.77 2.06-10.33 2.05-4.55 5.85-7.21h0q2.29-1.61 5.1-2.39Q22.82 7 26.57 7Zm-5.88 30.34h0q1.2 0 2.26-1.06 1.07-1.07 1.98-2.87.91-1.79 1.67-4.08.75-2.29 1.27-4.74.52-2.44.81-4.87.29-2.42.29-4.39h0q0-2.71-.55-3.72-.55-1.02-1.59-1.02h0q-1.2 0-2.29 1.04t-2.05 2.79q-.97 1.74-1.72 4-.76 2.27-1.3 4.66-.55 2.4-.84 4.74-.28 2.34-.28 4.32h0q0 2.96.65 4.08t1.69 1.12ZM71.33 7.52l-.88 3.96h-8.38l-6.2 29.09H44.63l6.2-29.09h-8.28l.94-3.96h27.84Zm28.89 0-.89 3.96h-8.37l-6.2 29.09H73.52l6.19-29.09h-8.27l.93-3.96h27.85Zm19.1 0 3.59 33.05h-12.18l-.73-8.28h-9.62l-3.7 8.28h-5.05l15.36-33.05h12.33Zm-10.88 6.82-6.35 14.15h7.55l-1.2-14.15Zm21.76 26.23-1.93-33.05h11.87l1.77 22.38 10.83-22.38h5.15l-15.41 33.05H130.2Zm42.37-33.05-7.08 33.05h-11.24l7.02-33.05h11.3ZM192.6 7h0q4.48 0 7.27 1.14 2.78 1.15 4.39 3.54h0q1.04 1.62 1.62 3.65.57 2.03.57 4.68h0q0 2.29-.42 4.58-.41 2.29-1.17 4.4-.75 2.11-1.82 3.95-1.07 1.85-2.37 3.26h0q-2.44 2.65-5.65 3.72-3.2 1.07-7.88 1.07h0q-4.53 0-7.29-.94t-4.37-3.02h0q-1.14-1.46-1.79-3.69-.66-2.24-.66-5.63h0q0-5.77 2.06-10.33 2.06-4.55 5.86-7.21h0q2.29-1.61 5.1-2.39Q188.86 7 192.6 7Zm-5.88 30.34h0q1.2 0 2.27-1.06 1.06-1.07 1.98-2.87.91-1.79 1.66-4.08.76-2.29 1.28-4.74.52-2.44.8-4.87.29-2.42.29-4.39h0q0-2.71-.55-3.72-.54-1.02-1.59-1.02h0q-1.19 0-2.29 1.04-1.09 1.04-2.05 2.79-.96 1.74-1.72 4-.75 2.27-1.3 4.66-.55 2.4-.83 4.74-.29 2.34-.29 4.32h0q0 2.96.65 4.08t1.69 1.12Z" data-gra-ignore-stroke="true" data-gra-ignore-fill="true" fill="#0FF"/><path d="M23.07 3.5h0q4.48 0 7.26 1.14 2.79 1.15 4.4 3.54h0q1.04 1.62 1.61 3.65.58 2.03.58 4.68h0q0 2.29-.42 4.58t-1.17 4.4q-.76 2.11-1.82 3.95-1.07 1.85-2.37 3.26h0q-2.45 2.65-5.65 3.72-3.2 1.07-7.88 1.07h0q-4.53 0-7.29-.94t-4.37-3.02h0q-1.15-1.46-1.8-3.69-.65-2.24-.65-5.63h0q0-5.77 2.06-10.33 2.05-4.55 5.85-7.21h0q2.29-1.61 5.1-2.39 2.81-.78 6.56-.78Zm-5.88 30.34h0q1.2 0 2.26-1.06 1.07-1.07 1.98-2.87.91-1.79 1.67-4.08.75-2.29 1.27-4.74.52-2.44.81-4.87.29-2.42.29-4.39h0q0-2.71-.55-3.72-.55-1.02-1.59-1.02h0q-1.2 0-2.29 1.04t-2.05 2.79q-.97 1.74-1.72 4-.76 2.27-1.3 4.66-.55 2.4-.84 4.74-.28 2.34-.28 4.32h0q0 2.96.65 4.08t1.69 1.12ZM67.83 4.02l-.88 3.96h-8.38l-6.2 29.09H41.13l6.2-29.09h-8.28l.94-3.96h27.84Zm28.89 0-.89 3.96h-8.37l-6.2 29.09H70.02l6.19-29.09h-8.27l.93-3.96h27.85Zm19.1 0 3.59 33.05h-12.18l-.73-8.28h-9.62l-3.7 8.28h-5.05l15.36-33.05h12.33Zm-10.88 6.82-6.35 14.15h7.55l-1.2-14.15Zm21.76 26.23-1.93-33.05h11.87l1.77 22.38 10.83-22.38h5.15l-15.41 33.05H126.7Zm42.37-33.05-7.08 33.05h-11.24l7.02-33.05h11.3Zm20.03-.52h0q4.48 0 7.27 1.14 2.78 1.15 4.39 3.54h0q1.04 1.62 1.62 3.65.57 2.03.57 4.68h0q0 2.29-.42 4.58-.41 2.29-1.17 4.4-.75 2.11-1.82 3.95-1.07 1.85-2.37 3.26h0q-2.44 2.65-5.65 3.72-3.2 1.07-7.88 1.07h0q-4.53 0-7.29-.94t-4.37-3.02h0q-1.14-1.46-1.79-3.69-.66-2.24-.66-5.63h0q0-5.77 2.06-10.33 2.06-4.55 5.86-7.21h0q2.29-1.61 5.1-2.39 2.81-.78 6.55-.78Zm-5.88 30.34h0q1.2 0 2.27-1.06 1.06-1.07 1.98-2.87.91-1.79 1.66-4.08.76-2.29 1.28-4.74.52-2.44.8-4.87.29-2.42.29-4.39h0q0-2.71-.55-3.72-.54-1.02-1.59-1.02h0q-1.19 0-2.29 1.04-1.09 1.04-2.05 2.79-.96 1.74-1.72 4-.75 2.27-1.3 4.66-.55 2.4-.83 4.74-.29 2.34-.29 4.32h0q0 2.96.65 4.08t1.69 1.12Z" data-gra-ignore-stroke="true" data-gra-ignore-fill="true" fill="#ffae00"/><path d="M19.57 0h0q4.48 0 7.26 1.14 2.79 1.15 4.4 3.54h0q1.04 1.62 1.61 3.65.58 2.03.58 4.68h0q0 2.29-.42 4.58t-1.17 4.4q-.76 2.11-1.82 3.95-1.07 1.85-2.37 3.26h0q-2.45 2.65-5.65 3.72-3.2 1.07-7.88 1.07h0q-4.53 0-7.29-.94t-4.37-3.02h0Q1.3 28.57.65 26.34 0 24.1 0 20.71h0q0-5.77 2.06-10.33 2.05-4.55 5.85-7.21h0q2.29-1.61 5.1-2.39Q15.82 0 19.57 0Zm-5.88 30.34h0q1.2 0 2.26-1.06 1.07-1.07 1.98-2.87.91-1.79 1.67-4.08.75-2.29 1.27-4.74.52-2.44.81-4.87.29-2.42.29-4.39h0q0-2.71-.55-3.72-.55-1.02-1.59-1.02h0q-1.2 0-2.29 1.04t-2.05 2.79q-.97 1.74-1.72 4-.76 2.27-1.3 4.66-.55 2.4-.84 4.74-.28 2.34-.28 4.32h0q0 2.96.65 4.08t1.69 1.12ZM64.33.52l-.88 3.96h-8.38l-6.2 29.09H37.63l6.2-29.09h-8.28l.94-3.96h27.84Zm28.89 0-.89 3.96h-8.37l-6.2 29.09H66.52l6.19-29.09h-8.27l.93-3.96h27.85Zm19.1 0 3.59 33.05h-12.18l-.73-8.28h-9.62l-3.7 8.28h-5.05L99.99.52h12.33Zm-10.88 6.82-6.35 14.15h7.55l-1.2-14.15Zm21.76 26.23L121.27.52h11.87l1.77 22.38L145.74.52h5.15l-15.41 33.05H123.2ZM165.57.52l-7.08 33.05h-11.24L154.27.52h11.3ZM185.6 0h0q4.48 0 7.27 1.14 2.78 1.15 4.39 3.54h0q1.04 1.62 1.62 3.65.57 2.03.57 4.68h0q0 2.29-.42 4.58-.41 2.29-1.17 4.4-.75 2.11-1.82 3.95-1.07 1.85-2.37 3.26h0q-2.44 2.65-5.65 3.72-3.2 1.07-7.88 1.07h0q-4.53 0-7.29-.94t-4.37-3.02h0q-1.14-1.46-1.79-3.69-.66-2.24-.66-5.63h0q0-5.77 2.06-10.33 2.06-4.55 5.86-7.21h0q2.29-1.61 5.1-2.39Q181.86 0 185.6 0Zm-5.88 30.34h0q1.2 0 2.27-1.06 1.06-1.07 1.98-2.87.91-1.79 1.66-4.08.76-2.29 1.28-4.74.52-2.44.8-4.87.29-2.42.29-4.39h0q0-2.71-.55-3.72-.54-1.02-1.59-1.02h0q-1.19 0-2.29 1.04-1.09 1.04-2.05 2.79-.96 1.74-1.72 4-.75 2.27-1.3 4.66-.55 2.4-.83 4.74-.29 2.34-.29 4.32h0q0 2.96.65 4.08t1.69 1.12Z" data-gra-ignore-stroke="true"/></g><path d="m23.8 9.4-.2-7.9 4.6-.1v.8l-3.6.1.1 2.5 3-.1v.9h-3l.1 2.9 3.6-.1.1.9-4.7.1Zm11.6-1-4-7.3 1.1-.2 2 4 .6 1.2.6 1.2h.1a48.7 48.7 0 0 0 .1-1.4 181.6 181.6 0 0 1 .2-1.3l.4-4.4 1-.2-1 8.2-1.1.2Zm-22.9-.2L13.7.4l1.9.3a3.6 3.6 0 0 1 2.6 1.4q.8 1.1.5 3-.2.9-.5 1.6-.4.7-.9 1.1-.5.5-1.3.6-.7.2-1.6.1l-1.9-.3Zm1.1-.7.9.1a2.5 2.5 0 0 0 2.1-.5 3.5 3.5 0 0 0 1.1-2.2q.2-1.4-.4-2.3a2.6 2.6 0 0 0-1.9-1.1l-.9-.2-.9 6.2ZM0 1.3.3.6l2.5 1.1-.3.7L0 1.3Zm47 1.1-.3-.7L49.2.6l.3.7L47 2.4ZM6.2 5.3a.8.8 0 0 0-.3.4q-.1.3 0 .6.2.3.4.4a.7.7 0 0 0 .6-.1.7.7 0 0 0 .3-.4q.1-.4 0-.6a.7.7 0 0 0-.4-.4.7.7 0 0 0-.6.1Z" transform="translate(145.25 143.795)" data-gra="path-slogan" fill-rule="evenodd" class="tp-slogan" fill="url(#b)"/></g><defs><linearGradient x1="0" y1="1" x2="0" y2="0" id="b"><stop offset="0%" stop-color="#ff51f9"/><stop offset="50%" stop-color="#a348ff"/><stop offset="100%" stop-color="#3978ff"/></linearGradient><linearGradient x1="0" y1="1" x2="0" y2="0" id="a"><stop offset="0%" stop-color="#ff51f9"/><stop offset="50%" stop-color="#a348ff"/><stop offset="100%" stop-color="#3978ff"/></linearGradient></defs></svg>